<svg t="1585483245574" viewBox="0 0 1024 1024" version="1.1" xmlns="http://www.w3.org/2000/svg" p-id="1700"><path d="M1001.1 474.4l-488.6-410-0.4-0.5-0.1 0.1-0.1-0.1-0.4 0.5-488.6 410 32.2 38.4 95.9-80.5v452.2c0 41.4 32.8 75.1 73 75.1h119.7c40.3 0 73-33.7 73-75.1V665.4c0-13.8 10.9-25 24.3-25h150.1c13.4 0 24.3 11.2 24.3 25v219.1c0 41.4 32.8 75.1 73 75.1h119.7c40.3 0 73-33.7 73-75.1V439.3l87.5 73.5 32.5-38.4zM832.7 884.5c0 13.8-10.9 25-24.3 25H688.6c-13.4 0-24.3-11.2-24.3-25V665.4c0-41.4-32.8-75.1-73-75.1H441.1c-40.3 0-73 33.7-73 75.1v219.1c0 13.8-10.9 25-24.3 25H224c-13.4 0-24.3-11.2-24.3-25v-493L512 129.4l320.7 269.1v486zM790.6 116.2h50.1v119.7h-50.1z" fill="#24BC77" p-id="1701"></path></svg>